<svg version="1" xmlns="http://www.w3.org/2000/svg" width="853.333" height="853.333" viewBox="0 0 640.000000 640.000000"><path d="M266.5 64.5c-19.7 2.9-26.2 4.6-40.2 10.1-31.9 12.4-56.1 29.2-79.2 54.6-33.3 36.7-50 76.6-57.1 136.6-2.6 22.8-2.7 46.5 0 69.8 2.2 19.4 3.5 26.4 8.6 46.6 4.3 17.5 7.2 25.5 14.4 40.3 10.3 21.1 22.1 37.4 40.2 55.5 26.3 26.2 56.9 42.8 97.4 52.9 51.8 13 111.9 8.9 154.1-10.4l7.8-3.6 18.5 12.3c22.2 14.7 55.8 34.3 72.9 42.4l12.3 5.8 2.3-2.8c2.4-3 31.5-60.5 31.5-62.3 0-.5-3.3-2.2-7.2-3.8-15.3-5.9-32.1-13.7-42.7-19.9-11.3-6.6-26.1-16.3-26.1-17.1 0-.2 3.2-4.4 7.1-9.2 13.4-16.7 25.6-37.3 33.3-56.2 5.7-14 11.5-39.5 14.1-61.6 1.4-12.1 2.1-45.1 1.3-64.2-1.7-43.2-8.4-71.7-24.4-105.1-9.5-19.9-21.3-36-39.1-53.3-11.2-10.9-16.1-14.9-30.1-24.3-20.7-14-45-24.7-68.7-30.1-26.3-6-72.1-7.4-101-3zM331 141c15.1 2.3 23.9 4.9 34.5 10.3 11 5.5 18.8 10.9 26.9 18.6 17.6 17 30 36.7 37.6 60.4 8 24.5 11 65.3 7.5 99.5-3.1 29.3-5.5 39-14.4 57.7-5.4 11.2-15.4 26.8-20 30.9-1.9 1.7-2.2 1.6-10-4.3-14.4-11-29.3-20.1-47.6-29.1-20.2-9.9-29.3-13.6-30.5-12.4-2.7 2.8-25.7 51-24.8 51.9.2.2 5.2 2.2 11.2 4.5 11.8 4.6 32.1 14.8 42.3 21.2 6.2 3.9 6.4 4.2 4.2 5-1.3.5-7.5 1.8-13.7 2.9-35.3 6-70.4-1.7-95.6-20.9-16.2-12.4-26.6-25.2-37.4-45.9-7.7-14.9-10.3-22.4-13.6-39-7.3-36.6-7.3-67.9-.1-103.8 3.1-15.6 6.5-25.5 13.3-39 18.2-36.4 48.8-61.7 81.3-67.4 6.3-1.1 12.8-2.2 14.4-2.4 8-1 23.2-.5 34.5 1.3z"/></svg>